<svg xmlns="http://www.w3.org/2000/svg" viewBox="-141.794 -209.889 934.956 934.956"><rect x="-4.9" y="-73" transform="matrix(0.7071 0.7071 -0.7071 0.7071 277.5346 -154.8472)" fill="#FFFFFF" width="661.1" height="661.1"/><g><g><g><path d="M148.559 202.561c0-55.806-41.884-198.763 176.072-198.763c216.032 0 174.5 139.5 174.5 195.8 c-38.263 38.269-75.521 10.637-174.513 10.637c-99.002-0.529-145.848 22.835-176.085-7.724H148.559z"/><g><path d="M83.378 207.963c0-18.602 108.013-9.422 241.252-9.422c133.246 0 241.259-9.18 241.2 9.4 S524.268 309.4 324.5 309.4c-228.291 0-241.203-83.151-241.203-101.438H83.378z"/><path fill="#FFFFFF" d="M83.378 207.963c0.097 0.048-0.248-1.162 0.969-2.804c1.155-1.663 3.842-3.202 7.518-4.323 c7.388-2.309 18.72-3.477 33.082-4.116c28.772-1.271 69.901-0.117 119.6 0.598c24.664 0.7 51.5 0.7 79.7 0.7 c28.265-0.109 58.061-0.673 88.896-1.416c30.827-0.702 62.679-1.759 95.114-1.45c8.108 0 16.5 0 24.7 0.7 c8.164 0.7 16.5 1.4 24.7 3.36c2.035 0.7 4.1 1.4 6.2 2.377c0.97 0.7 2.1 1.4 2.8 2.1 c0.831 0.7 1.4 2.1 1.4 3.532l0.041 0.509c0.029 0 0 0.7 0 0.522l-0.047 0.687c-0.034 0.509-0.055 1.01-0.165 1.6 c-0.165 1.126-0.371 2.227-0.666 3.236c-0.522 2.075-1.237 4.075-2.056 6.185c-3.271 7.786-8.006 14.789-13.358 21.2 c-10.857 12.713-24.334 22.82-38.613 31.047c-14.349 8.172-29.536 14.623-45.031 19.2 c-15.482 4.996-31.213 8.699-46.882 11.461c-15.688 2.725-31.328 4.412-46.722 5.607c-30.842 2.193-60.706 1.939-88.978 0.7 c-28.25-1.471-54.892-4.578-79.109-9.387c-24.175-4.943-45.987-11.588-64.06-20.342c-18.073-8.674-32.38-19.387-41.575-30.506 c-9.346-11.042-13.559-21.913-15.27-29.383c-0.887-3.751-1.195-6.714-1.312-8.693c-0.873-1.718-0.928-3.093-0.928-2.824H83.378z M83.378 207.963c0 0-0.027 0.7 0 3.017c0.13 2.1 0.7 4.8 1.4 8.687c1.731 7.6 6.2 18.6 15.1 29.5 c9.215 11 23.4 22 41.9 30.312c18.066 8.9 39.9 15.1 63.9 19.977c24.224 4.8 50.9 7.6 79 8.9 c28.202 1.4 57.7 1.4 88.744-1.324c30.635-2.578 62.253-7.561 92.929-17.537c15.324-4.955 30.318-11.381 44.427-19.477 c14.033-8.15 27.221-18.127 37.72-30.523c5.209-6.186 9.827-12.955 12.94-20.334c1.505-3.691 2.783-7.559 2.729-11.146 c-0.118-1.361-1.39-2.591-2.989-3.519c-1.616-0.907-3.479-1.574-5.375-2.123c-7.683-2.089-15.875-2.762-23.936-3.34 c-8.095-0.529-16.196-0.756-24.285-0.887c-32.326-0.357-64.197 0.468-95.031 0.859c-30.834 0.474-60.652 0.776-88.93 0.7 c-28.271-0.138-54.996-0.66-79.667-1.23c-49.326-1.134-90.448-2.247-119.213-1.126c-14.356 0.591-25.694 1.717-33.075 4.1 c-3.676 1.105-6.356 2.638-7.518 4.294c-1.058 1.175-0.9 1.862-0.9 2.13H83.378z"/></g><path fill="#FFFFFF" d="M145.418 255.084c0-13.305 77.227-24.087 172.492-24.087c95.265 0 172.5 11 172.5 24.1 c0 13.297-77.227 33.5-172.492 33.5c-95.259 0.234-172.76-20.381-172.76-33.465H145.418z"/></g></g><g><path fill="#010101" d="M495.814 423.84c0.012 22.479-12.902 42.803-33.795 53.443c-12 11.305-28.431 17.742-45.419 17.8 c-10.309 0-20.905-2.752-30.243-7.559c-12.093 13.254-29.972 24.25-48.777 24.262h-27.481v-0.012 c-18.553 0-36.684-10.996-48.787-24.043c-9.34 4.783-19.741 7.26-30.575 7.26c-17.184 0.104-33.362-6.771-45.361-17.766 c-20.609-10.834-33.681-30.77-33.67-53.445c-0.011-7.764 1.598-15.492 4.659-22.674c-3.438-6.861-4.807-15.105-4.807-22.664 c0-26.156 17.4-48.855 43.032-57.234c7.741-25.85 32.71-43.992 61.883-43.98c2.683 0 5.4 0.2 8 0.5 c12.08-14.682 30.975-26.613 50.876-26.602c0-0.229 4.715-0.686 8.906-0.686c4.2 0 8 0.5 8 0.457l-0.023 0.3 c19.798 0.1 38.5 12 50.6 26.615c2.684-0.32 5.366-0.492 8.049-0.492c29.173 0 54.2 18.1 61.9 44 c25.644 8.4 43 31.1 43 57.234c0 7.752-1.6 15.492-4.647 22.662C494.205 408.4 495.8 416.1 495.8 423.84z"/></g></g></svg>